<svg id="sy_cc_app_RGB.svg" xmlns="http://www.w3.org/2000/svg" viewBox="0 0 240 234"><defs><style>.cls-1{fill:#262600;}.cls-2{fill:#fcf400;fill-rule:evenodd;}</style></defs><title>Artboard 1</title><rect class="cls-1" x="10" y="10" width="220" height="214"/><path class="cls-2" d="M0,0V234H240V0ZM10,10H230V224H10Z"/><path class="cls-2" d="M57.45,158.68c6.1,3.46,14.94,5.28,24.67,5.28,21.76,0,35.12-12.7,35.12-31,0-12.37-4.78-22.42-23.58-32.81l-5.28-2.8C77,91.08,73.87,86.47,73.87,80.2c0-5.77,4.12-13,16.82-13,7.75,0,15.3,1.65,20.41,4.95a.79.79,0,0,0,1.32-.66V56.62c0-1-.16-1.48-1-1.81C107.3,52.5,100.08,51,90.36,51c-22.09,0-33.8,13.52-33.8,30.34,0,12.37,4.95,22.09,21.93,31.66l5.94,3.13C96,122.9,99.09,128,99.09,134.28c0,7.09-4.95,13.35-17,13.35a43,43,0,0,1-24.34-7.42.78.78,0,0,0-1.32.49v15.83A2.45,2.45,0,0,0,57.45,158.68Zm80.4-77.49H120.53c-.66,0-1,.39-.66,1.21,8.41,26.87,20.77,62.16,25.23,75.51a3.68,3.68,0,0,1,0,2.31c-4.45,11.71-6.92,18.8-10.72,27.37-.49,1-.33,1.48.66,1.48l16.16-1.15A2,2,0,0,0,153,186.6c11-28.36,23.74-64.86,35.12-104.09.16-.82,0-1.32-1-1.32H172a1.31,1.31,0,0,0-1.48,1.15c-6.6,23.08-12,41.77-16,56.61-1.81-7.91-5.94-25.12-15.5-56.78A1.2,1.2,0,0,0,137.85,81.19Z"/></svg>