<?xml version="1.0" encoding="UTF-8"?>
<!-- Generator: Adobe Illustrator 12.0.0, SVG Export Plug-In . SVG Version: 6.00 Build 51448)  -->
<!DOCTYPE svg PUBLIC "-//W3C//DTD SVG 1.1//EN" "http://www.w3.org/Graphics/SVG/1.1/DTD/svg11.dtd" [
	<!ENTITY ns_svg "http://www.w3.org/2000/svg">
	<!ENTITY ns_xlink "http://www.w3.org/1999/xlink">
]>
<svg version="1.1" xmlns="http://www.w3.org/2000/svg" xmlns:xlink="http://www.w3.org/1999/xlink" width="418.5" height="153.001" viewBox="0 0 418.5 153.001" overflow="visible" enable-background="new 0 0 418.5 153.001" xml:space="preserve">
<g id="background">
	<rect fill="#CECECE" width="400.5" height="153.001"/>
	<rect x="4.5" y="4.5" fill="#FFFFFF" width="175.5" height="144"/>
	<rect x="180" y="4.5" fill="#FFCE6B" width="216" height="144"/>
	<linearGradient id="XMLID_3_" gradientUnits="userSpaceOnUse" x1="200.25" y1="144" x2="200.25" y2="157.5005">
		<stop offset="0" style="stop-color:#FFFFFF"/>
		<stop offset="1" style="stop-color:#000000"/>
	</linearGradient>
	<rect y="144.614" fill="url(#XMLID_3_)" width="400.5" height="7.771"/>
	<linearGradient id="XMLID_4_" gradientUnits="userSpaceOnUse" x1="392.1133" y1="76.5005" x2="405.6133" y2="76.5005">
		<stop offset="0" style="stop-color:#FFFFFF"/>
		<stop offset="1" style="stop-color:#000000"/>
	</linearGradient>
	<rect x="392.727" y="0" fill="url(#XMLID_4_)" width="7.773" height="153"/>
</g>
<g id="writings">
	<g id="xhtml_1_">
		<path d="M211.796,61.326l-3.672-5.848c-1.506-2.253-2.469-3.931-3.612-5.8h-0.121c-0.843,1.869-1.866,3.547-3.19,5.8l-3.312,5.848    h-10.476l11.74-16.346l-11.319-15.962h10.536l3.553,5.896c1.204,1.965,2.106,3.547,3.07,5.369h0.12    c0.964-2.061,1.746-3.499,2.77-5.369l3.432-5.896h10.476l-11.438,15.771l12.041,16.538H211.796z"/>
		<path d="M236.54,29.018v12.463h15.112V29.018h9.151v32.308h-9.151v-13.47H236.54v13.47h-9.15V29.018H236.54z"/>
		<path d="M276.697,35.153H265.74v-6.136h31.187v6.136h-11.078v26.172h-9.151V35.153z"/>
		<path d="M335.879,48.958c-0.181-3.883-0.361-8.532-0.361-13.278h-0.121c-1.324,4.123-3.01,8.724-4.575,12.511l-4.937,12.607    h-7.165l-4.335-12.463c-1.324-3.835-2.648-8.389-3.672-12.655h-0.121c-0.18,4.362-0.421,9.347-0.662,13.374l-0.782,12.271h-8.489    l2.589-32.308h12.222l3.974,10.833c1.324,3.691,2.528,7.717,3.432,11.504h0.241c1.083-3.739,2.468-7.958,3.853-11.6l4.275-10.738    h12.041l2.167,32.308h-8.91L335.879,48.958z"/>
		<path d="M352.556,29.018h9.15V55.19h16.136v6.136h-25.286V29.018z"/>
	</g>
	<g id="_x31_.1_1_">
		<g>
			<path fill="#39394A" d="M206.86,92.185h-0.137l-8.488,3.793l-1.712-7.33l11.844-5.145h8.557v41.796H206.86V92.185z"/>
			<path fill="#39394A" d="M238.146,126.007c-3.491,0-6.024-2.508-6.024-5.916c0-3.537,2.533-5.98,6.161-5.98     c3.561,0,6.024,2.379,6.093,5.98c0,3.408-2.464,5.916-6.161,5.916H238.146z"/>
			<path fill="#39394A" d="M262.654,92.185h-0.137l-8.489,3.793l-1.711-7.33l11.843-5.145h8.558v41.796h-10.063V92.185z"/>
		</g>
	</g>
	<polygon id="valid_1_" fill="#9C0000" points="319.5,99 337.5,81 355.5,99 400.5,54 418.5,72 355.5,135  "/>
	<g id="_x28_r_x29__1_" display="none">
		<path display="inline" d="M168.206,38.061c0.928,0,1.817,0.217,2.67,0.651c0.852,0.435,1.522,1.058,2.009,1.869    s0.731,1.66,0.731,2.546c0,0.882-0.239,1.723-0.717,2.523c-0.478,0.8-1.145,1.424-1.999,1.872    c-0.854,0.448-1.753,0.671-2.694,0.671c-0.942,0-1.84-0.224-2.694-0.671c-0.855-0.447-1.521-1.071-1.999-1.872    s-0.717-1.642-0.717-2.523c0-0.886,0.244-1.735,0.731-2.546s1.157-1.434,2.009-1.869    C166.388,38.278,167.278,38.061,168.206,38.061z M168.21,39.053c-0.744,0-1.458,0.174-2.141,0.522    c-0.683,0.349-1.221,0.849-1.614,1.502c-0.394,0.652-0.59,1.336-0.59,2.05c0,0.71,0.192,1.387,0.576,2.031    c0.384,0.644,0.919,1.147,1.607,1.508c0.688,0.362,1.408,0.542,2.162,0.542c0.758,0,1.479-0.181,2.165-0.542    c0.686-0.361,1.221-0.864,1.607-1.508c0.386-0.644,0.579-1.321,0.579-2.031c0-0.714-0.197-1.398-0.59-2.05    c-0.393-0.653-0.933-1.153-1.618-1.502C169.668,39.228,168.954,39.053,168.21,39.053z M165.756,45.842v-5.383h1.168    c1.095,0,1.708,0.004,1.84,0.013c0.387,0.031,0.688,0.103,0.902,0.215c0.215,0.112,0.394,0.285,0.538,0.517    c0.144,0.231,0.216,0.489,0.216,0.771c0,0.389-0.136,0.721-0.408,0.997c-0.271,0.276-0.653,0.447-1.146,0.513    c0.174,0.062,0.309,0.129,0.402,0.202c0.094,0.073,0.224,0.211,0.389,0.414c0.042,0.053,0.184,0.271,0.424,0.655l0.683,1.086    h-1.438l-0.484-0.874c-0.327-0.587-0.597-0.956-0.81-1.108c-0.213-0.152-0.482-0.229-0.808-0.229h-0.305v2.211H165.756z     M166.92,42.788h0.476c0.677,0,1.098-0.024,1.261-0.073c0.164-0.049,0.292-0.134,0.387-0.256s0.142-0.261,0.142-0.416    c0-0.15-0.046-0.285-0.139-0.402c-0.092-0.117-0.224-0.202-0.394-0.252c-0.17-0.051-0.589-0.077-1.257-0.077h-0.476V42.788z"/>
	</g>
	<g id="w3c_1_">
		<path d="M139.313,112.812c-3.12-0.989-13.34-10.789-15.76-20.41c4.03,12.171,28.38,19.66,34.68,0    c8.67,7.691-8.71,19.141-11.03,20.41C144.883,114.082,142.434,113.802,139.313,112.812z"/>
		<path d="M158.233,39.042c2.15,2.04,3.6,6.47,3.15,9.42c-0.2,1.34-4.66,7.82-4.73,7.85c-3.21,1.32-7.55-7.72-12.61-7.85    c-9.81-0.25-16.09,13.42-14.19,29.82c-4.71-3.07-4.08-13.72-3.15-20.4c2.09-15.02,17.05-27.29,26.8-10.99    C156.273,45.462,156.394,41.392,158.233,39.042z"/>
		<path fill="#00428C" d="M115.093,70.762c4.61,4.49,7.06,13.02,6.53,19.24c-0.54,6.431-3.47,12.89-7.91,17.56    c-1.16,1.221-3.09,3.451-6.65,5.25c-3.56,1.801-7.38,1.511-11.03,0c-3.65-1.51-15.62-11.149-11.04-15.699    c7.81-7.74,7.61,8.68,17.35,6.279c5.54-1.369,8.6-7.819,8.69-13.08c0.11-6.489-2.01-11.75-8.26-14.109    c-3.17-1.2-6.54-2.07-9.89-2.63l13.23-26.6l-13.23-0.08l-22.07,65.919h-1.58l-12.61-45.52l-14.19,45.52h-1.58l-20.49-75.339h7.88    l13.52,46.71l10.13-31.011l-4.73-15.7h9.46l12.78,46.39c0,0,9.58-30.92,14.02-46.39c12.08,0,36.26,0,36.26,0    s-12.62,28.24-12.62,28.25C107.233,65.352,114.434,70.112,115.093,70.762z"/>
	</g>
</g>
</svg>