<svg xmlns="http://www.w3.org/2000/svg" viewBox="0 0 240 234" enable-background="new 0 0 240 234"><radialGradient id="a" cx="97.339" cy="80.691" r="145.825" gradientUnits="userSpaceOnUse"><stop offset="0" stop-color="#2F2A2C" stop-opacity=".85"/><stop offset=".767" stop-color="#2F2A2C"/></radialGradient><path fill-rule="evenodd" clip-rule="evenodd" fill="url(#a)" d="M8.2 8.2h223.7v217.6h-223.7z"/><path fill-rule="evenodd" clip-rule="evenodd" fill="#B3A3A8" d="M0 0v234h240v-234h-240zm10 10h220v214h-220v-214zM75.5 162.9v-44.9h35.8c.8 0 1.2-.2 1.2-1.2v-13.7c0-1-.4-1.2-1.2-1.2h-35.8v-31.4h39.8c1 0 1.5-.3 1.3-1.3l-1.6-14c-.2-.8-.3-1.2-1.3-1.2h-55c-.8 0-1.2.3-1.2 1.2v107.5c0 1 .3 1.3 1.2 1.3h15.7c.8 0 1.1-.1 1.1-1.1zm81.1-65.9c10.4 0 18.7 7.1 18.7 24.1-.2 20.1-10.9 28.7-22.1 28.7-2.1 0-4.1-.2-6.1-.7v-50.4c2.4-1 5.3-1.7 9.5-1.7zm-10.8-43h-15.8c-.7 0-1 .3-1 1.2v105.7c0 .7.5 1.2 1 1.3 6.9 2.3 13.9 3.3 21.1 3.3 22.3 0 42.2-15.3 42.2-45.5 0-23.6-13.5-38.6-33.8-38.6-4.8 0-8.9.5-12.5 1.8v-28c0-.9-.3-1.2-1.2-1.2z"/><path fill-rule="evenodd" clip-rule="evenodd" fill="#332D34" d="M2.3 2.8h235.4v228.5h-235.4z"/><path fill-rule="evenodd" clip-rule="evenodd" fill="#C3B4D4" d="M59 161.8c-.7-.5-1-1.1-1-2.1v-15.5c0-.5.6-1 1.3-.5 7.2 5 15.5 7.2 23.5 7.2 11.8 0 16.6-6.1 16.6-13 0-6.1-3.1-11.1-14.3-17.7l-5.8-3.1c-16.6-9.3-21.4-18.8-21.4-30.9 0-16.4 11.4-29.6 33-29.6 9.5 0 16.1 1.5 20.1 3.7.8.3 1 .8 1 1.8v14.5c0 .6-.6 1.1-1.3.6-5-3.2-11.9-4.8-19.5-4.8-12.4 0-16.4 7.1-16.4 12.7 0 6.1 3.1 10.6 14.2 16.7l5.1 2.7c18.4 10.1 23 20 23 32 0 17.9-13 30.3-34.3 30.3-9.4.1-17.9-1.6-23.8-5zm123 1.8c0 .7-.2 1-.8 1.3-4.2 1.6-9.2 2.1-14.5 2.1-22.9 0-36.2-16.9-36.2-40.9 0-23.5 15.1-41.2 38.3-41.2 6.3 0 10 .5 12.4 1.4.6.5.8.8.8 1.6v13.4c0 .8-.5 1-1.1.8-2.7-1.1-6.3-1.8-11.1-1.8-12.7 0-21.4 8.9-21.4 25 0 19 10.9 25.6 21.7 25.6 4.7 0 8.4-.5 10.8-1.4.8-.2 1.1.2 1.1.8v13.3zM0 0v234h240v-234h-240zm10 10h220v214h-220v-214z"/></svg>